<svg version="1.1" viewBox="0.0 0.0 512.0 512.0" fill="none" stroke="none" stroke-linecap="square" stroke-miterlimit="10" xmlns:xlink="http://www.w3.org/1999/xlink" xmlns="http://www.w3.org/2000/svg"><clipPath id="g2a6782d7be9_0_55.0"><path d="m0 0l512.0 0l0 512.0l-512.0 0l0 -512.0z" clip-rule="nonzero"/></clipPath><g clip-path="url(#g2a6782d7be9_0_55.0)"><path fill="#000000" fill-opacity="0.0" d="m0 0l512.0 0l0 512.0l-512.0 0z" fill-rule="evenodd"/><path fill="#000000" fill-opacity="0.0" d="m46.88189 256.0l0 0c0 -115.49274 93.625374 -209.1181 209.1181 -209.1181l0 0c55.46158 0 108.65158 22.03202 147.86884 61.249275c39.217255 39.217255 61.249268 92.40726 61.249268 147.86884l0 0c0 115.49274 -93.62537 209.1181 -209.1181 209.1181l0 0c-115.49274 0 -209.1181 -93.62537 -209.1181 -209.1181z" fill-rule="evenodd"/><path stroke="#eeeeee" stroke-width="24.0" stroke-linejoin="round" stroke-linecap="butt" d="m46.88189 256.0l0 0c0 -115.49274 93.625374 -209.1181 209.1181 -209.1181l0 0c55.46158 0 108.65158 22.03202 147.86884 61.249275c39.217255 39.217255 61.249268 92.40726 61.249268 147.86884l0 0c0 115.49274 -93.62537 209.1181 -209.1181 209.1181l0 0c-115.49274 0 -209.1181 -93.62537 -209.1181 -209.1181z" fill-rule="evenodd"/><path fill="#eeeeee" d="m79.339676 471.60175l0 0c-2.9490204 3.0466003 -7.7251434 3.0415955 -10.667763 -0.011199951l-21.312332 -22.11023l0 0c-1.4130974 -1.4660034 -2.2057457 -3.4531555 -2.2035713 -5.524292c0.0021743774 -2.0711365 0.79899216 -4.05661 2.2151604 -5.519623l385.28918 -398.03815c2.9490051 -3.0466003 7.725128 -3.0415878 10.667755 0.011199951l21.312317 22.110233c2.942627 3.0527878 2.937439 7.997322 -0.01159668 11.043922z" fill-rule="evenodd"/><path fill="#eeeeee" d="m71.245186 32.036045l0 0c-2.9490204 -3.0466003 -7.7251396 -3.0415878 -10.667759 0.011199951l-21.312336 22.110237l0 0c-1.4130936 1.4659996 -2.205742 3.4531403 -2.2035675 5.5242767c0.0021743774 2.0711365 0.79899216 4.05661 2.2151604 5.519642l401.47815 414.76257c2.9490051 3.0466003 7.725128 3.0415955 10.667755 -0.011199951l21.312317 -22.11023c2.942627 -3.0527954 2.937439 -7.9973145 -0.011566162 -11.043915z" fill-rule="evenodd"/><path fill="#000000" fill-opacity="0.0" d="m60.125374 255.99939l0 0c0 -108.17824 87.69578 -195.87402 195.87402 -195.87402l0 0c51.949005 0 101.770355 20.636665 138.50385 57.37017c36.73349 36.733505 57.37018 86.554825 57.37018 138.50385l0 0c0 108.17822 -87.6958 195.87402 -195.87402 195.87402l0 0c-108.17824 0 -195.87402 -87.6958 -195.87402 -195.87402z" fill-rule="evenodd"/><path stroke="#eeeeee" stroke-width="24.0" stroke-linejoin="round" stroke-linecap="butt" d="m60.125374 255.99939l0 0c0 -108.17824 87.69578 -195.87402 195.87402 -195.87402l0 0c51.949005 0 101.770355 20.636665 138.50385 57.37017c36.73349 36.733505 57.37018 86.554825 57.37018 138.50385l0 0c0 108.17822 -87.6958 195.87402 -195.87402 195.87402l0 0c-108.17824 0 -195.87402 -87.6958 -195.87402 -195.87402z" fill-rule="evenodd"/></g></svg>
