<?xml version="1.0" encoding="UTF-8"?>
<svg width="1200pt" height="1200pt" version="1.1" viewBox="0 0 1200 1200" xmlns="http://www.w3.org/2000/svg">
 <g fill="#fff">
  <path d="m847.2 514.8c1.1992-6 1.1992-12 1.1992-19.199 0-82.801-67.199-150-150-150-22.801 0-44.398 6-64.801 16.801-27.602-19.199-60-30-94.801-30-92.398 0-168 75.602-168 168 0 9.6016 1.1992 18 2.3984 27.602-37.199 32.398-60 79.199-60 128.4 0 103.2 94.801 186 198 166.8 31.199 33.602 75.602 52.801 122.4 52.801 69.602 0 130.8-43.199 156-106.8 61.199-20.398 103.2-78 103.2-145.2 0.007812-40.805-16.793-80.402-45.594-109.2zm-94.801 183.6c-15.602 2.3984-27.602 14.398-31.199 30-9.6016 40.801-45.602 69.602-87.602 69.602-30 0-58.801-15.602-75.602-40.801-7.1992-10.801-19.199-16.801-32.398-16.801-4.8008 0-8.3984 1.1992-13.199 2.3984-66 24-121.2-25.199-121.2-85.199 0-32.398 16.801-62.398 45.602-78 16.801-9.6016 24-28.801 16.801-46.801-3.6016-10.801-6-20.398-6-31.199 0-49.199 40.801-90 90-90 24 0 46.801 9.6016 64.801 27.602 14.398 14.398 37.199 15.602 52.801 3.6016 51.602-40.801 115.2 0 115.2 55.199 0 6-2.3984 13.199-4.8008 21.602-6 16.801 1.1992 34.801 15.602 44.398 21.602 14.398 33.602 37.199 33.602 62.398-0.003907 34.801-26.406 66-62.406 72z"/>
  <path d="m600 211.2c21.602 0 39.602-18 39.602-39.602v-102c0-21.602-18-39.602-39.602-39.602s-39.602 18-39.602 39.602v103.2c0 21.598 18 38.398 39.602 38.398z"/>
  <path d="m270 325.2c7.1992 7.1992 18 12 27.602 12 9.6016 0 20.398-3.6016 27.602-12 15.602-15.602 15.602-39.602 0-55.199l-73.203-73.199c-15.602-15.602-39.602-15.602-55.199 0-15.602 15.602-15.602 39.602 0 55.199z"/>
  <path d="m211.2 600c0-21.602-18-39.602-39.602-39.602h-102c-21.602 0-39.602 18-39.602 39.602s18 39.602 39.602 39.602h103.2c21.598 0 38.398-18 38.398-39.602z"/>
  <path d="m270 874.8-73.199 73.199c-15.602 15.602-15.602 39.602 0 55.199 7.1992 7.1992 18 12 27.602 12 9.6016 0 20.398-3.6016 27.602-12l73.199-73.199c15.602-15.602 15.602-39.602 0-55.199-15.602-15.602-39.602-15.602-55.203 0z"/>
  <path d="m600 988.8c-21.602 0-39.602 18-39.602 39.602v103.2c0 21.602 18 39.602 39.602 39.602s39.602-18 39.602-39.602v-103.2c0-22.801-18-39.602-39.602-39.602z"/>
  <path d="m930 874.8c-15.602-15.602-39.602-15.602-55.199 0-15.602 15.602-15.602 39.602 0 55.199l73.199 73.199c7.1992 7.1992 18 12 27.602 12 9.6016 0 20.398-3.6016 27.602-12 15.602-15.602 15.602-39.602 0-55.199z"/>
  <path d="m1130.4 560.4h-103.2c-21.602 0-39.602 18-39.602 39.602s18 39.602 39.602 39.602h103.2c21.602 0 39.602-18 39.602-39.602s-18-39.602-39.602-39.602z"/>
  <path d="m902.4 337.2c9.6016 0 20.398-3.6016 27.602-12l73.199-73.199c15.602-15.602 15.602-39.602 0-55.199-15.602-15.602-39.602-15.602-55.199 0l-73.199 73.199c-15.602 15.602-15.602 39.602 0 55.199 7.1992 7.1992 18 12 27.598 12z"/>
 </g>
</svg>
