<?xml version="1.0" encoding="UTF-8"?>
<svg width="1200pt" height="1200pt" version="1.1" viewBox="0 0 1200 1200" xmlns="http://www.w3.org/2000/svg">
 <path d="m920.4 520.8c9.6016 8.3984 21.602 13.199 32.398 13.199 13.199 0 25.199-4.8008 34.801-15.602l151.2-158.4-150-159.6c-18-19.199-48-20.398-68.398-2.3984-19.199 18-20.398 48-2.3984 68.398l43.199 45.602h-62.398c-81.602 0-159.6 34.801-213.6 94.801l-109.2 121.2-109.2-121.2c-54-60-132-94.801-213.6-94.801h-126c-26.398 0-48 21.602-48 48s21.602 48 48 48h126c54 0 106.8 22.801 142.8 63.602l115.2 128.4-115.2 128.4c-36 40.801-88.801 63.602-142.8 63.602h-126c-26.398 0-48 21.602-48 48s21.602 48 48 48h126c81.602 0 159.6-34.801 213.6-94.801l109.2-121.2 109.2 121.2c54 60 132 94.801 213.6 94.801h62.398l-43.199 45.602c-18 19.199-16.801 49.199 2.3984 68.398 9.6016 8.3984 21.602 13.199 32.398 13.199 13.199 0 25.199-4.8008 34.801-15.602l151.2-159.6-150-159.6c-18-19.199-48-20.398-68.398-2.3984-19.199 18-20.398 48-2.3984 68.398l43.199 45.602h-62.398c-54 0-106.8-22.801-142.8-63.602l-115.2-128.4 115.2-128.4c36-40.801 88.801-63.602 142.8-63.602h62.398l-43.199 45.602c-16.801 19.199-16.801 49.199 2.3984 67.199z" fill="#fff"/>
</svg>
