<svg version="1.1" viewBox="0.0 0.0 512.0 512.0" fill="none" stroke="none" stroke-linecap="square" stroke-miterlimit="10" xmlns:xlink="http://www.w3.org/1999/xlink" xmlns="http://www.w3.org/2000/svg"><clipPath id="g262b05688b7_0_0.0"><path d="m0 0l512.0 0l0 512.0l-512.0 0l0 -512.0z" clip-rule="nonzero"/></clipPath><g clip-path="url(#g262b05688b7_0_0.0)"><path fill="#000000" fill-opacity="0.0" d="m0 0l512.0 0l0 512.0l-512.0 0z" fill-rule="evenodd"/><path fill="#eeeeee" d="m4.648389 100.06823l0 0c0 -53.019337 42.980663 -96.0 96.0 -96.0l0 0c25.460777 0 49.878754 10.114257 67.88225 28.117748c18.003494 18.003494 28.117752 42.421467 28.117752 67.88225l0 0c0 53.01934 -42.980667 95.99999 -96.0 95.99999l0 0c-53.01934 0 -96.0 -42.98065 -96.0 -95.99999z" fill-rule="evenodd"/><path fill="#eeeeee" d="m313.98438 409.7929l0 0c0 -53.01935 42.980682 -96.0 96.0 -96.0l0 0c25.460785 0 49.878754 10.114258 67.88226 28.117737c18.003479 18.00351 28.117737 42.42148 28.117737 67.88226l0 0c0 53.019318 -42.98065 96.0 -96.0 96.0l0 0c-53.019318 0 -96.0 -42.980682 -96.0 -96.0z" fill-rule="evenodd"/><path fill="#eeeeee" d="m270.11365 496.3168l0 0c-43.494324 18.126434 -115.95479 -16.610992 -164.793 -79.001465c-48.838203 -62.390503 -56.914616 -130.53842 -18.367752 -154.98517l22.140121 26.65683c-25.621231 11.346802 -16.79065 56.91922 20.176918 104.12805c36.967575 47.208862 89.36047 79.82095 119.71219 74.51511z" fill-rule="evenodd"/><path fill="#eeeeee" d="m38.1484 354.39008l0 0c-2.6830864 2.7720947 -7.0290146 2.768036 -9.7069 -0.009094238l-19.394962 -20.113708l0 0c-1.2859654 -1.3336182 -2.007421 -3.141449 -2.0056548 -5.0257874c0.0017666817 -1.8843079 0.72661114 -3.6907654 2.0150752 -5.0219727l68.483284 -70.75522c2.6830902 -2.77211 7.0290146 -2.768036 9.706902 0.009094238l19.394958 20.113708c2.677887 2.7771301 2.673668 7.2756653 -0.009422302 10.04776z" fill-rule="evenodd"/><path fill="#eeeeee" d="m126.35102 354.96722l0 0c2.6845932 2.7736511 7.0371933 2.7736511 9.721779 0l19.443573 -20.088623l0 0c1.2891846 -1.3319397 2.013443 -3.1384888 2.013443 -5.022156c0 -1.883667 -0.7242584 -3.6901855 -2.013443 -5.022156l-69.06113 -71.35222c-2.6845932 -2.7736511 -7.0371857 -2.7736511 -9.7217865 0l-19.443565 20.088608c-2.684597 2.7736511 -2.684597 7.2706604 0 10.044312z" fill-rule="evenodd"/><path fill="#eeeeee" d="m252.0245 466.4711l0 0c0.8691406 -0.6864624 2.1056366 -0.5196533 2.7617798 0.3725891l17.45633 23.737823c0.315094 0.4284668 0.45147705 0.97036743 0.3791504 1.5064392c-0.07232666 0.5360718 -0.34744263 1.0224609 -0.764801 1.3521118l-6.294861 4.971924c-0.8691406 0.6864929 -2.1056213 0.51968384 -2.7617798 -0.3725891l-17.456314 -23.737793c-0.65615845 -0.89227295 -0.48349 -2.1720886 0.38565063 -2.8585815z" fill-rule="evenodd"/><path fill="#eeeeee" d="m235.01027 39.37588l0 0c43.49431 -18.12643 115.95479 16.611004 164.79298 79.001495c48.838196 62.390495 56.91461 130.53839 18.367767 154.98517l-22.140137 -26.656845c25.621216 -11.346817 16.79065 -56.91922 -20.17691 -104.12807c-36.96759 -47.208855 -89.36047 -79.82093 -119.71219 -74.51511z" fill-rule="evenodd"/><path fill="#eeeeee" d="m466.97552 181.30261l0 0c2.683075 -2.7720947 7.0289917 -2.7680206 9.706879 0.009094238l19.394958 20.113724l0 0c1.2859802 1.3336182 2.0074463 3.141449 2.0056763 5.025772c-0.0017700195 1.8843079 -0.72662354 3.6907806 -2.0150757 5.021988l-68.48331 70.7552c-2.683075 2.7721252 -7.0289917 2.768036 -9.706879 -0.009094238l-19.394958 -20.113708c-2.677887 -2.7771301 -2.6736755 -7.2756653 0.009399414 -10.04776z" fill-rule="evenodd"/><path fill="#eeeeee" d="m378.7729 180.72548l0 0c-2.6846008 -2.7736511 -7.037201 -2.7736511 -9.721771 0l-19.443573 20.088608l0 0c-1.2891846 1.331955 -2.0134583 3.1384888 -2.0134583 5.022156c0 1.883667 0.7242737 3.6902008 2.0134583 5.022156l69.06113 71.352234c2.6846008 2.7736511 7.0371704 2.7736511 9.721771 0l19.443573 -20.088623c2.6846008 -2.7736511 2.6846008 -7.270645 0 -10.044296z" fill-rule="evenodd"/><path fill="#eeeeee" d="m253.0994 69.221596l0 0c-0.8691406 0.68647766 -2.1056213 0.51966095 -2.7617798 -0.37259674l-17.456314 -23.737804c-0.315094 -0.42847824 -0.45147705 -0.9703636 -0.3791504 -1.5064468c0.07232666 -0.5360832 0.34742737 -1.0224533 0.764801 -1.3521118l6.294861 -4.9719315c0.8691406 -0.6864815 2.1056213 -0.51966476 2.7617798 0.37259293l17.456314 23.737804c0.65615845 0.8922577 0.48349 2.1720772 -0.38565063 2.8585625z" fill-rule="evenodd"/></g></svg>
