<?xml version="1.0" encoding="UTF-8"?>
<svg width="1200pt" height="1200pt" version="1.1" viewBox="0 0 1200 1200" xmlns="http://www.w3.org/2000/svg">
 <g fill="#fff">
  <path d="m70.801 96h439.2v439.2h-439.2z"/>
  <path d="m391.2 742.8h84l-133.2-130.8-133.2 132h84c12 151.2 140.4 271.2 295.2 271.2v-97.199c-100.8-1.1992-184.8-76.801-196.8-175.2z"/>
  <path d="m800.4 460.8h-82.801l133.2 133.2 133.2-133.2h-84c-12-151.2-140.4-271.2-296.4-271.2v98.398c100.8 0 184.8 75.602 196.8 172.8z"/>
  <path d="m1095.6 901.2c0 121.28-98.32 219.6-219.6 219.6s-219.6-98.32-219.6-219.6 98.32-219.6 219.6-219.6 219.6 98.316 219.6 219.6"/>
 </g>
</svg>
